<?xml version="1.0" encoding="UTF-8"?>
<svg enable-background="new 0 0 841.9 595.3" version="1.1" viewBox="0 0 450 400" xml:space="preserve" xmlns="http://www.w3.org/2000/svg" xmlns:cc="http://creativecommons.org/ns#" xmlns:dc="http://purl.org/dc/elements/1.1/" xmlns:rdf="http://www.w3.org/1999/02/22-rdf-syntax-ns#"><metadata><rdf:RDF><cc:Work rdf:about=""><dc:format>image/svg+xml</dc:format><dc:type rdf:resource="http://purl.org/dc/dcmitype/StillImage"/><dc:title/></cc:Work></rdf:RDF></metadata><g transform="matrix(.97778 0 0 .975 -163.25 -111.31)"><g transform="matrix(.90408 0 0 .90238 16.506 50.695)"><g transform="translate(-2.207e-6 .55)" fill="#61dafb"><path d="m522.11 75.463c-27.901 0-64.432 19.911-101.36 54.407-36.931-34.293-73.462-53.994-101.36-53.994v0.09512c-8.5224 0-16.227 1.8516-22.923 5.707-28.51 16.436-34.908 67.666-20.196 131.99-63.107 19.48-104.18 50.608-104.18 83.481 0 32.974 41.287 64.229 104.6 83.607-14.61 64.527-8.1293 115.87 20.482 132.31 6.5947 3.8554 14.306 5.6753 22.828 5.6753 27.901 0 64.432-19.879 101.36-54.375 36.931 34.293 73.462 53.963 101.36 53.963 8.5224 0 16.227-1.8199 22.923-5.6753 28.51-16.436 34.908-67.666 20.196-131.99 62.904-19.378 103.99-50.64 103.99-83.512 0-32.974-41.287-64.197-104.6-83.576 14.61-64.527 8.0976-115.87-20.513-132.31-6.5695-3.8406-14.223-5.6614-22.606-5.6753v-0.12682zm-0.0951 22.638v0.09507c4.667 0 8.3956 0.90678 11.541 2.6316 13.798 7.9137 19.791 38.066 15.124 76.822-1.116 9.537-2.9359 19.588-5.168 29.835-19.886-4.87-41.598-8.6302-64.426-11.065-13.697-18.77-27.894-35.815-42.2-50.729 33.027-30.697 64.028-47.541 85.129-47.59zm-202.63 0.41217c21.002 0 52.149 16.734 85.224 47.273-14.204 14.914-28.389 31.864-41.883 50.634-22.929 2.435-44.667 6.1889-64.552 11.16-2.3335-10.146-4.0456-19.987-5.2631-29.423-4.7685-38.757 1.1097-68.902 14.806-76.918 3.0437-1.8262 7.0006-2.6316 11.668-2.6316v-0.09507zm101.27 63.189c9.4356 9.7399 18.852 20.596 28.186 32.466-9.1312-0.40583-18.465-0.69752-27.901-0.69752-9.537 0-18.954 0.19023-28.186 0.69752 9.1312-11.871 18.567-22.727 27.901-32.466zm-40.298 42.073h29.676c27.938 8e-3 30.33 0.1587 40.837 2.5364 16.689 3.7769 30.165 10.759 40.076 20.767 8.4343 8.517 13.228 15.891 16.931 26.094 10.024 27.615 8.5391 67.07-3.4559 91.058-7.9913 15.982-20.367 28.326-36.208 36.144-16.498 8.1427-30.555 10.9-58.306 11.477-10.383 0.21611-21.293 0.21481-24.223-0.0317l-5.3265-0.47558v-14.553c-1.6946-0.12372-3.3855-0.24365-5.0729-0.38046-8.421-12.073-16.626-24.959-24.54-38.554-7.7108-13.291-14.724-26.797-21.116-40.393 6.2904-13.595 13.411-27.197 21.021-40.488 7.9137-13.697 16.024-26.671 24.445-38.744 1.7525-0.1529 3.5053-0.3075 5.2631-0.44387v-14.014zm-34.781 17.692c-4.9714 7.8122-9.9492 15.846-14.616 24.064-4.6671 8.1166-9.0297 16.233-13.189 24.35-5.4787-13.595-10.158-27.203-14.014-40.393 13.291-3.1452 27.311-5.8909 41.82-8.0215zm150.57 0c14.407 2.1306 28.307 4.7748 41.598 8.0215-3.7539 13.088-8.421 26.582-13.697 40.076-4.1598-8.1166-8.5478-16.233-13.316-24.35-4.6671-8.1166-9.6131-16.037-14.585-23.747zm63.506 14.014c10.044 3.1452 19.575 6.5821 28.503 10.336 35.916 15.32 59.162 35.402 59.162 51.331-0.10146 15.929-23.342 36.144-59.258 51.363-8.7254 3.7539-18.281 7.0957-28.123 10.241-5.7831-19.886-13.392-40.589-22.828-61.794 9.3341-21.103 16.861-41.693 22.543-61.477zm-277.8 0.0951c5.7831 19.886 13.392 40.589 22.828 61.794-9.3341 21.103-16.829 41.693-22.511 61.477-10.044-3.1452-19.581-6.5821-28.408-10.336-35.916-15.32-59.162-35.434-59.162-51.363 0-15.929 23.246-36.113 59.162-51.331 8.7254-3.7539 18.25-7.0957 28.091-10.241zm242.2 88.775c5.4787 13.595 10.127 27.203 13.982 40.393-13.291 3.2466-27.279 5.986-41.788 8.1166 4.9714-7.8122 9.9492-15.846 14.616-24.064 4.667-8.1166 9.0297-16.328 13.189-24.445zm-206.28 0.41214c4.1598 8.1166 8.5161 16.233 13.285 24.35 4.7685 8.1166 9.6448 16.037 14.616 23.747-14.407-2.1306-28.307-4.7748-41.598-8.0215 3.7539-13.088 8.421-26.582 13.697-40.076zm225.93 61.889c2.3335 10.247 4.1788 20.082 5.2948 29.518 4.7685 38.757-1.1097 68.902-14.806 76.918-3.0437 1.8262-7.0006 2.6316-11.668 2.6316-21.002 0-52.149-16.734-85.224-47.273 14.204-14.914 28.389-31.864 41.883-50.634 22.929-2.435 44.635-6.1889 64.521-11.16zm-245.31 0.19023c19.886 4.87 41.598 8.6302 64.426 11.065 13.697 18.77 27.894 35.815 42.2 50.729-33.075 30.742-64.121 47.59-85.224 47.59-4.5656-0.10145-8.4337-1.0336-11.477-2.7584-13.798-7.9137-19.759-38.034-15.092-76.791 1.116-9.537 2.9359-19.588 5.168-29.835zm94.546 13.285c9.1312 0.40583 18.465 0.72923 27.901 0.72923 9.537 0 18.985-0.22194 28.218-0.72923-9.1312 11.871-18.567 22.726-27.901 32.466-9.4356-9.7399-18.884-20.596-28.218-32.466z"/><polygon points="320.8 78.4 320.8 78.4"/><polygon points="520.5 78.1 520.5 78.1"/></g><path d="m352.21 309.96-0.2547-104.83-66.5-0.52697v-12.047-12.047l78.75 0.40621c85.369 0.44035 83.744 0.34304 104.69 6.2698 46.992 13.294 71.567 49.801 71.552 106.29-0.01 23.923-3.5426 40.522-12.504 58.698-10.009 20.301-26.653 37.085-47.324 47.724-11.824 6.0857-19.559 8.8542-33.39 11.95-8.39 1.8783-13.365 2.1184-52.023 2.5108l-42.745 0.43393-0.2546-104.83zm71.245 80.654c22.04-1.7053 35.751-5.5618 49.526-13.93 12.361-7.5098 19.83-15.092 27.235-27.651 12.122-20.559 15.872-52.853 9.6269-82.906-0.972-4.6779-3.7165-12.321-6.6092-18.406-4.2537-8.9476-6.0911-11.549-13.113-18.565-11.628-11.62-23.288-17.773-41.166-21.726-7.4639-1.6503-14.077-2.0778-38.75-2.5046l-29.75-0.51461v93.053 93.053l4.75 0.37454c9.8335 0.77538 26.174 0.65684 38.25-0.27747zm8.6679-49.551-22.668-16.564v-43.401c0-41.886 0.068-43.437 1.9343-44.436 3.0089-1.6103 20.297-1.3173 22.625 0.3834 1.8491 1.3513 1.9565 3.1413 2.2654 37.75l0.3242 36.331 16.012 11.418c8.8068 6.2796 16.702 12.47 17.544 13.756 1.4357 2.1911 1.3202 2.694-1.8367 7.9966-4.0078 6.7321-9.9703 13.33-12.046 13.33-0.8179 0-11.688-7.4536-24.155-16.564z"/></g></g></svg>
